<svg xml:space="preserve" style="max-height: 500px" viewBox="48.01178203240059 39.84 222.29455081001473 145.92" y="0px" x="0px" xmlns:xlink="http://www.w3.org/1999/xlink" xmlns="http://www.w3.org/2000/svg" id="Layer_1" version="1.0" width="222.29455081001473" height="145.92">
<path d="M160.1,41.5c-2.2,0.1-4.4,0.5-6.5,1.1c-0.6,0.2-1.3,0.3-1.9,0.4c-2.6,0.2-5.1,0.7-7.6,1.4c-3.3,0.8-6.5,2-9.5,3.6&#10;&#9;c-0.8,0.4-1.9,1-2.5,1.2c-2.8,1.3-5.2,3.2-7,5.6c-0.4,0.5-0.8,0.8-1.3,1.1c-1.8,0.9-3.4,2.1-4.8,3.6c-0.7,0.7-1.4,1.4-2.3,1.9&#10;&#9;c-3.1,1.6-5.5,4.2-7,7.4c-0.3,1-1,1.8-1.9,2.3c-1,0.8-1.9,1.6-2.8,2.5c-1.1,1-1.9,2.3-2.5,3.6c-0.8,1.7-1.3,3.5-1.5,5.3&#10;&#9;c0,0.5-0.3,0.9-1.3,2c-2.4,2.5-3.9,5.7-4.4,9.1c-0.1,0.8-0.4,2.2-0.6,3.2c-1.3,5.9-1.7,11.9-1.4,17.9c0.1,2.2,0.3,4.4,0.4,4.9&#10;&#9;c0.2,1.1,0.2,2.2,0.3,3.3c0,2.4,0.6,4.7,1.6,6.8c0.3,0.6,0.6,1.3,0.8,2c0,0.9,2.1,6.2,4.3,10.7c1.1,2.2,1.5,2.9,1.8,3&#10;&#9;c0.4,0.1,0.6,0.5,0.9,1.5c0.6,1.8,1.5,3.4,2.7,4.8c1.2,1.5,2.7,2.7,4.3,3.7c0.6,0.4,1,1,1.2,1.7c0.9,2,2.2,3.8,3.8,5.3l1.3,1.3&#10;&#9;l-0.8,0.1c-0.4,0.1-1.5,0.2-2.3,0.2c-8.4,0.8-16.8,2.1-25.1,4c-6.5,1.5-15.2,4.1-14.9,4.4c0.2,0.1,3.7,1.4,8.9,3.1&#10;&#9;c0.8,0.2,1.6,0.6,2.4,1c0,0.1-0.7,2.3-1.7,4.9c-0.9,2.6-1.6,4.7-1.5,4.8c1.1-0.3,2.2-0.6,3.2-1c10.1-3.1,20.4-5.1,30.9-6.1&#10;&#9;c11.7-0.9,23.5,0.2,34.9,3.3c1.1,0.3,2.2,0.6,2.3,0.6c-1.1-1.3-2.3-2.5-3.5-3.7l-3.7-3.7l0.8-0.2c2.5-0.7,5-1.2,7.6-1.6&#10;&#9;c2.3-0.4,3.4-0.4,8.8-0.4c3-0.1,6,0,9,0.4c2.8,0.4,5.6,1,8.3,1.8c-1.1,1.3-2.3,2.6-3.6,3.8c-2,2-3.7,3.6-3.6,3.6&#10;&#9;c0.1,0,1.5-0.3,3.1-0.8c9.2-2.4,18.7-3.5,28.2-3.3c12.5,0.5,24.9,2.6,36.9,6.3c1.1,0.4,2.1,0.7,3.2,1c-0.4-1.6-1-3.3-1.6-4.9&#10;&#9;c-0.6-1.6-1.1-3.2-1.5-4.9c0.1-0.1,2.6-1,5.5-2s5.5-1.9,5.5-2c0.3-0.3-7.7-2.7-13.2-4c-9-2.2-18.1-3.7-27.2-4.5l-4-0.3l0.9-0.8&#10;&#9;c1.7-1.5,3-3.3,4-5.3c0.8-1.7,1-1.9,1.9-2.5c1.8-1.3,3.5-2.8,4.8-4.7c0.9-1.5,1.7-3,2.2-4.7c0-0.1,0.2-0.2,0.4-0.3&#10;&#9;c0.2,0,0.7-0.6,1.9-3c1.7-3.5,4.2-9.6,4.3-10.5c0.2-0.7,0.4-1.4,0.8-2c1.1-2,1.6-4.2,1.6-6.4c0-0.8,0.1-1.7,0.2-2.5&#10;&#9;c0.3-0.6,0.6-4.4,0.6-9.6c0-6.5-0.2-8.9-1.3-13.8c-0.3-1.5-0.7-3.3-0.8-4c-0.5-3.3-2-6.4-4.4-8.7c-1-1-1.1-1.3-1.2-2.2&#10;&#9;c-0.6-4.7-3.2-8.9-7.1-11.5c-0.8-0.5-1.1-0.9-1.9-2.5c-1.4-3-3.8-5.5-6.8-7c-0.8-0.5-1.5-1.1-2.1-1.8c-1.3-1.5-2.9-2.7-4.7-3.6&#10;&#9;c-0.9-0.5-1.7-1.2-2.3-2c-1.5-1.8-3.4-3.3-5.5-4.4c-0.9-0.4-1.9-0.9-2.3-1.1c-4.5-2.4-9.3-4.1-14.3-5c-1.2-0.2-2.8-0.6-3.6-0.9&#10;&#9;c-2.5-0.7-5.1-1.1-7.7-1.2c-1.5-0.1-2.9-0.2-3.1-0.2S161.4,41.4,160.1,41.5z M169.5,43.7c1.6,0.2,3.1,0.6,4.5,1.3&#10;&#9;c0.1,0.2-0.1,1-0.6,2.6c-2.2,6.3-4.8,11.4-7,13.6c-0.8,0.8-1.8,1.4-2.9,1.6c-2.3,0-4.9-2.5-7.3-7.1c-1.6-3-4-9.6-3.7-10.3&#10;&#9;c0.3-0.7,3.6-1.7,6.8-2C162.6,43.2,166,43.3,169.5,43.7z M150.5,45.8c0.4,2.8,3.7,10.7,5.7,13.6c0.4,0.6,0.7,1.2,0.6,1.2&#10;&#9;c-2.4-0.7-4.7-1.5-6.9-2.5c-5-2.2-11.2-5.7-13.6-7.8l-0.9-0.8l1.1-0.6c3.6-1.6,7.3-2.8,11.1-3.6C150.4,44.8,150.2,44.8,150.5,45.8&#10;&#9;L150.5,45.8z M180.5,46.2c1.4,0.4,3.4,1,4.4,1.4c2,0.8,4.4,1.9,4.4,2.1c-1.4,1.3-3,2.5-4.7,3.5c-4.3,2.6-8.7,4.7-13.4,6.5&#10;&#9;c-0.5,0.2-1,0.3-1.5,0.5c-0.1,0,0.1-0.6,0.6-1.2c2-3.4,3.6-7.1,4.8-10.9c0.4-1.3,0.8-2.5,0.9-2.6C176.1,45.1,177,45.3,180.5,46.2&#10;&#9;L180.5,46.2z M135,51.7c1.1,0.9,2.2,1.7,3.4,2.5c0.7,0.4,1.4,0.9,2,1.4c0,0.4-4.6,3.4-5.2,3.4c0.1-0.6,0.2-1.1,0.4-1.7&#10;&#9;c0.8-2.5,0.5-3-1.9-3.2c-1.9-0.1-3.8,0.1-5.6,0.4c-0.9,0.2,1.9-2.3,3.7-3.2c0.6-0.3,1.1-0.6,1.8-0.8C134,50.9,134.5,51.2,135,51.7z&#10;&#9; M192.3,50.9c1.6,0.8,3,1.8,4.3,3c0.6,0.7,0.6,0.7,0.2,0.6c-1.9-0.3-3.8-0.5-5.6-0.4c-1.2,0.1-1.6,0.2-2,0.6c-0.6,0.6-0.6,1,0,2.8&#10;&#9;c0.2,0.5,0.3,1,0.4,1.5c-0.6-0.2-1.1-0.4-1.6-0.7c-1.5-0.8-3.6-2.4-3.5-2.7c0.7-0.5,1.4-1,2.1-1.5c1.1-0.8,2.6-1.8,3.3-2.4&#10;&#9;c0.4-0.4,0.9-0.8,1.4-1.1C191.6,50.6,192,50.7,192.3,50.9L192.3,50.9z M133.4,55.9l0.8,0.1l-0.4,1.2c-0.3,0.9-0.7,1.7-1.1,2.5&#10;&#9;l-0.6,1.3l-1.9,1c-2.4,1.2-4.4,3-5.9,5.2c-0.9,1.3-1.6,2-1.6,1.5c0.1-0.3,0.2-0.7,0.3-1c0.6-1.7,0.9-3.5,1-5.4&#10;&#9;c0.1-1.9,0.1-2-0.3-2.5c-0.4-0.5-0.6-0.4-1.4-0.3l-1,0.1l0.7-0.6c1.6-1.2,3.5-2.1,5.4-2.7C129.2,56,131.3,55.7,133.4,55.9&#10;&#9;L133.4,55.9z M196.3,56.2c2.4,0.5,4.6,1.5,6.5,2.9l0.7,0.6l-0.9-0.1c-0.5-0.1-1,0-1.3,0.3c-0.4,0.4-0.5,0.5-0.4,2c0.1,2,0.4,4,1,5.9&#10;&#9;c0.4,1,0.4,1.1,0,1c-0.4-0.2-0.7-0.6-0.9-1c-1.6-2.6-3.9-4.6-6.6-5.9c-1.5-0.7-1.5-0.7-2.1-2.1c-0.6-1.2-1.1-2.5-1.4-3.8&#10;&#9;C190.7,55.7,194.1,55.8,196.3,56.2L196.3,56.2z M148.9,59.8c0.6,0.2,1.1,0.5,1.6,0.8c0,0.4-3.2,2.9-4.6,3.6&#10;&#9;c-1.4,0.7-2.8,1.1-4.3,1.4l-0.9,0.1l0.7-1.6c0.7-1.7,0.8-2.7,0.4-3.3s-2.6-0.8-4.2-0.7c-0.6,0-1.1,0.1-1.1,0c0.3-0.2,0.7-0.4,1-0.5&#10;&#9;c0.8-0.5,1.6-0.9,2.3-1.5c0.6-0.5,1.3-0.9,2-1.2c0.7-0.2,0.8-0.2,3.1,0.9C146.3,58.6,148.1,59.4,148.9,59.8z M183.4,57.1&#10;&#9;c0.6,0.3,1.1,0.7,1.6,1.1c0.7,0.5,1.4,1,2.1,1.3c0.6,0.3,1.1,0.6,1.1,0.6s-1,0.1-2.2,0.1c-3.5,0-3.8,0.5-2.7,3.5&#10;&#9;c0.3,0.6,0.5,1.2,0.6,1.9c-0.2,0.2-3.2-0.7-4.7-1.4c-1.5-0.7-4.5-2.9-4.8-3.5c-0.2-0.3,0-0.4,1.2-0.9c0.8-0.3,2.5-1.1,3.8-1.8&#10;&#9;C181.9,56.8,182.5,56.7,183.4,57.1z M157.1,62.7c1.2,0.3,2.4,0.8,3.6,1.3c2,1,4.3,0.7,6-0.7c1-0.5,2-1,3.1-1.3l2.5-0.8l1.5,1.4&#10;&#9;c2.7,2.6,6.2,4.3,10,4.8c1.1,0.1,1.2,0.2,1.7,1c1.6,2.4,3.8,4.3,6.3,5.7l1.3,0.6l0.8,1.8c0.8,1.8,1.9,3.5,3.3,4.9&#10;&#9;c0.9,0.9,1.2,1.4,1.2,1.8c0.2,1.7,0.6,3.4,1.2,5c0.8,1.9,1.9,3.6,3.3,5.1l0.8,0.9l-0.2,2.1c-0.2,2.4,0,4.8,0.8,7.1&#10;&#9;c0.2,0.7,0.3,1.2,0.2,1.2c-0.6,0.2-0.7,0.7-0.8,3.4c-0.2,5.5-1.5,11-3.7,16c-1,2.4-1,2.6-0.8,3s0.3,0.5-0.7,1.2&#10;&#9;c-2.6,2-4.6,4.6-5.8,7.6l-0.4,1.3l-1.8,0.8c-2.8,1.2-5.3,3.2-7.1,5.7c-0.5,0.6-0.6,0.7-1.6,0.8c-1,0.1-2.1,0.3-3.1,0.6&#10;&#9;c-1.1,0.3-2.1,0.5-2.3,0.5c-0.5,0.1-2.9-8.1-4.3-14.9c-2.5-12.2-3.9-24.5-4.5-37c0.1-1.7-0.1-3.3-0.3-4.9c-0.2-0.5-0.2-0.5,0.8-1&#10;&#9;c1.4-0.8,2.6-1.9,3.4-3.3c0.5-1,1.2-3.6,1-3.9c-1.5-0.2-3.1-0.2-4.7-0.2c-4.1,0-4.5,0-4.1-0.3c1.4-1,2-3.9,1.2-6.8&#10;&#9;c-0.4-1.6-1.7-4.7-2-4.7c-0.7,1.2-1.3,2.5-1.7,3.9c-0.5,1.7-0.7,3.5-0.4,5.3c0.2,0.6,0.6,1.2,1,1.7l0.8,0.9h-9.1l0.1,1.2&#10;&#9;c0.3,2.7,2,5,4.4,6.2c0.7,0.4,1.2,0.7,1,0.7c-0.4,0-0.6,1.4-0.6,4.2c0,3.9-0.6,11.7-1.6,19.8c-1.1,10.5-3.2,20.9-6.3,31&#10;&#9;c-0.7,2.3-0.9,2.8-1.2,2.7c-1.8-0.8-3.8-1.3-5.8-1.6l-1.9-0.2l-0.5-0.8c-2.1-2.7-4.9-4.8-8.1-6c-0.5-0.2-0.8-0.4-0.8-0.8&#10;&#9;c-1.1-3.3-3.1-6.3-5.9-8.4c-1-0.7-1.3-1.1-0.9-1.3c0.4-0.2,0.2-0.8-0.6-2.6c-1.2-3.1-2.2-6.2-3-9.4c-0.6-3.2-1-6.5-1-9.9&#10;&#9;c0-0.1-0.2-0.2-0.5-0.3l-0.5-0.3l0.4-1.1c0.9-2.6,1.1-5.4,0.7-8.2l-0.2-1.1l1-1.1c2.4-2.5,3.8-5.8,4.2-9.2c0-1,0.5-1.9,1.3-2.5&#10;&#9;c1.5-1.6,2.7-3.3,3.5-5.3c0.4-1,0.8-1.5,1.1-1.6c1.6-0.8,3.1-1.8,4.5-3c0.8-0.7,1.5-1.6,2.2-2.4l1.1-1.5l1.5-0.2&#10;&#9;c3.6-0.5,6.8-2.2,9.4-4.7l1.6-1.5l1.2,0.5C154.3,61.9,155.9,62.4,157.1,62.7z M122.4,62.7c-0.3,3.3-1.9,7.8-2.8,8.1&#10;&#9;c-1.8,0.7-3.4,1.6-5,2.7c-0.8,0.6-1.6,1.1-1.6,1.1s-0.1-0.2-0.1-0.5c-0.1-1.4-0.6-2.8-1.3-4l-0.5-0.5l0.5-1c1.9-3.4,5.1-5.9,8.8-6.9&#10;&#9;c0.5-0.2,1.1-0.3,1.6-0.3C122.5,61.3,122.5,61.3,122.4,62.7L122.4,62.7z M204.4,61.7c2.5,0.8,4.8,2.2,6.6,4c1,1.1,1.8,2.3,2.5,3.7&#10;&#9;c-0.1,0.2-0.2,0.4-0.4,0.6c-0.5,0.7-0.8,1.6-0.9,2.4c-0.3,1.1-0.5,2.1-0.6,2.2c-0.3-0.1-0.6-0.4-0.9-0.6c-1.4-1.1-2.9-2-4.6-2.7&#10;&#9;c-0.6-0.2-1.1-0.5-1.6-0.9c-1-1.2-2.3-5.7-2.3-8C202.4,61.1,202.4,61.1,204.4,61.7L204.4,61.7z M140.3,62.1&#10;&#9;c-0.6,1.8-1.4,3.5-2.4,5.1c-1.2,1.7-2.6,3.2-4.4,4.4c-1.2,0.8-1.6,0.9-1.4,0.4c0.1-0.2,0.2-0.9,0.3-1.7c0.5-3.4,0.2-4.1-1.8-3.9&#10;&#9;c-0.9,0.1-1.9,0.3-2.8,0.6c-0.6,0.2-1.1,0.3-1.7,0.4c0.4-0.6,0.9-1.1,1.5-1.6c2.8-2.7,6.6-4.2,10.5-4&#10;&#9;C140,61.9,140.3,61.9,140.3,62.1L140.3,62.1z M190.1,62.1c2.9,0.5,5.5,2,7.5,4.1c0.4,0.4,0.8,0.8,1.1,1.3c-0.4,0-0.9-0.1-1.3-0.3&#10;&#9;c-3.5-1.1-4.8-1.1-5.2,0.2c0,1.4,0.1,2.8,0.3,4.2c0.1,0.4,0.1,0.7,0,0.7c-1.2-0.6-2.4-1.4-3.3-2.4c-1.7-1.7-3-3.6-4-5.8&#10;&#9;c-1.1-2.6-1.2-2.4,1.2-2.4C187.6,61.8,188.8,61.9,190.1,62.1L190.1,62.1z M130.9,69.6c-0.3,3.4-1.6,6.7-3.6,9.4&#10;&#9;c-0.9,1-1.1,1-1.1-0.4c0-1.1-0.3-1.9-0.9-2.2c-0.4-0.2-0.7-0.1-1.9,0.3c-0.5,0.2-0.9,0.3-1.4,0.4c0,0-0.1-1.1-0.1-2.4l-0.1-2.4&#10;&#9;l1.1-0.9c1.9-1.5,5.8-3.2,7.6-3.2C131,68.2,131,68.2,130.9,69.6z M196.4,68.7c2.1,0.6,4,1.6,5.7,2.9c0.9,0.7,1.1,1,1,1.3&#10;&#9;s-0.2,1.3-0.2,2.4c-0.1,1.7-0.2,1.9-0.4,1.8c-0.8-0.5-1.8-0.7-2.8-0.6c-0.6,0.2-0.8,0.7-1,2.2c0,0.4-0.1,0.9-0.3,1.3&#10;&#9;c-0.3,0-2-2.5-2.7-4c-0.9-2-1.5-4.2-1.8-6.4c-0.1-1.3-0.1-1.3,0.4-1.3C194.9,68.3,195.7,68.5,196.4,68.7z M111,72.7&#10;&#9;c1,3.7,0.8,7.6-0.8,11.1c-0.5,1-1.2,1.9-2.1,2.6c-0.5,0.5-1.1,1-1.7,1.4c0,0-0.2-0.6-0.4-1.3c-0.5-2-1.5-4-2-4.4&#10;&#9;c-0.3-0.2-0.7-0.3-1-0.2c-0.5,0.1-0.5,0.1-0.4-0.7c0.6-2.6,1.9-5,3.8-6.9c1.2-1.2,3.8-3.1,4-2.9C110.7,71.8,110.9,72.3,111,72.7z&#10;&#9; M216.6,72.9c2.8,2.1,4.7,5.1,5.5,8.6c0.1,0.6,0.1,0.6-0.3,0.5c-1.2-0.4-1.7,0.3-2.9,3.9c-0.4,1.2-0.8,2-0.8,1.9&#10;&#9;c-0.4-0.6-1-1-1.5-1.5c-0.7-0.6-1.3-1.3-1.8-2c-1.8-3.2-2.1-7.8-0.8-12.3l0.2-0.7l0.7,0.4C215.2,71.9,216,72.4,216.6,72.9&#10;&#9;L216.6,72.9z M120,73.5c0.1,0.5,0.1,1.8,0.1,2.8v2l-0.9,0.6c-2.1,1.5-3.8,3.4-5,5.6l-0.5,1l-0.4-0.7c-0.2-0.3-0.5-0.6-0.8-0.8&#10;&#9;c-0.5-0.1-0.5-0.1,0-1.6c0.3-1.1,0.5-2.2,0.6-3.4c0.2-2.1,0.3-2.2,0.9-2.8c1.3-1.1,2.8-2.1,4.3-2.8c0.5-0.3,1-0.5,1.5-0.7&#10;&#9;C119.9,72.9,120,73.2,120,73.5L120,73.5z M206.3,73.2c1.7,0.8,3.3,1.9,4.7,3.1c0.6,0.6,0.6,0.8,0.7,2.5c0.1,1.2,0.3,2.3,0.6,3.4&#10;&#9;l0.5,1.6l-0.5,0.2c-0.4,0.2-0.6,0.5-0.8,0.9l-0.3,0.8l-0.8-1.5c-1.1-2-2.7-3.7-4.5-5l-1.4-1l0.1-2.4c0.1-2.2,0.2-3,0.4-3&#10;&#9;C205.5,72.8,205.9,73,206.3,73.2L206.3,73.2z M124.6,81.1c0,1.4-0.1,2.9-0.4,4.3c-0.6,2.1-1.6,4.2-2.9,5.9l-0.8,0.9l-0.4-0.9&#10;&#9;c-0.5-1.3-1.1-2.5-1.8-3.6c-0.5-0.6-1.3-0.4-2.4,0.5c-0.4,0.3-0.8,0.6-1.2,0.9c-0.1,0-0.1-0.4,0-1c0.5-2.2,1.5-4.1,3-5.8&#10;&#9;c1.8-2,6.3-4.7,6.8-4.1C124.6,79.2,124.7,80.1,124.6,81.1L124.6,81.1z M202.3,78.8c2,0.9,3.7,2.3,5.1,3.9c1.6,1.9,3.2,5.7,2.7,6.2&#10;&#9;c-0.1,0.1-0.6-0.2-1.2-0.7c-1.1-0.9-1.9-1.1-2.4-0.5c-0.8,1.2-1.4,2.6-1.9,3.9c-0.1,0.3-0.2,0.5-0.3,0.5c-0.3,0-2-2.3-2.6-3.6&#10;&#9;c-1-2-1.5-4.1-1.6-6.3c-0.1-2,0-4.3,0.3-4.3C200.5,78,201.3,78.4,202.3,78.8L202.3,78.8z M104,85.3c1.1,2.9,1.5,6.1,1,9.2&#10;&#9;c-0.3,1.4-1.3,4.1-1.6,4.1c-0.3,0-5.4-2.7-6.3-3.2c-0.4-0.3-0.4-0.4-0.3-1.4c0.3-2.3,1.1-4.4,2.4-6.3c0.9-1.4,3.7-4.2,4-4&#10;&#9;C103.6,84.2,103.8,84.7,104,85.3z M224,85.7c2.3,2.6,3.9,6.1,3.9,8.6c0,0.8,0,0.9-0.8,1.3c-1.9,1.1-3.9,2-5.9,2.8&#10;&#9;c-0.7-1.5-1.3-3.1-1.6-4.7c-0.4-3.1,0.1-6.2,1.3-9l0.5-1.2l0.9,0.6C222.9,84.6,223.5,85.2,224,85.7z M216,88.2l1.9,1.8l0.1,2.2&#10;&#9;c0.1,2.1,0.5,4.1,1.4,6l0.5,1.1l-1.1,0.5c-0.6,0.3-1.7,0.7-2.4,1l-1.3,0.5l-0.1-1.7c-0.2-2.8-1.1-5.5-2.6-7.8c-0.7-1-0.7-1.6,0-4&#10;&#9;s0.6-2.3,1.4-1.9C214.4,86.6,215.2,87.4,216,88.2z M112.4,87.4c0.3,0.8,0.6,1.9,0.7,2.5l0.2,1l-1,1.8c-1.5,2.3-2.3,5-2.3,7.7&#10;&#9;c0,0.8-0.1,1-0.3,1s-4.5-1.8-4.6-1.9c0.1-0.5,0.3-1,0.5-1.5c0.8-1.8,1.2-3.8,1.2-5.8c-0.1-0.7,0-1.4,0.3-2.1c0.8-1.3,4-4.2,4.6-4.2&#10;&#9;C111.8,85.9,112.1,86.5,112.4,87.4z M118.1,90.8c1,2.2,1.6,4.6,1.5,7c0.1,1.9-0.2,3.7-0.9,5.4c-0.3,0.7-0.5,0.9-0.7,0.8l-2.6-0.8&#10;&#9;c-1.3-0.4-2.6-0.8-3.1-0.9l-0.8-0.3V100c-0.1-1.2,0.1-2.5,0.5-3.6c0.3-1,0.7-1.9,1.2-2.8c0.7-1.1,3.5-4.4,3.9-4.4&#10;&#9;C117.6,89.7,117.9,90.2,118.1,90.8z M209.1,90.5c2.8,2.9,4.5,7.1,4.2,10.5l-0.1,1l-3,0.9c-1.6,0.5-3.2,0.9-3.5,1&#10;&#9;c-0.5,0.1-0.5,0.1-1.1-1.6s-0.6-1.9-0.5-4.7s0-3.1,0.5-4.6c0.3-0.9,0.8-2.2,1.1-2.8C207.5,88.9,207.5,88.9,209.1,90.5z M164,100.5&#10;&#9;c2.6,23.2,5.6,44.3,6.9,48.1c0.2,0.5,0.1,0.7-0.4,1.3l-0.6,0.7l-0.9-0.3c-4-1.4-8.4-1.1-12.3,0.6c-1,0.5-1.3,0.5-1.7-0.1&#10;&#9;s-0.3-0.6,0.2-2.2c1.6-5.7,4.2-23.8,7.6-52.7c0.1-0.9,0.2-1.7,0.4-2.6C163.2,93.3,163.6,96.6,164,100.5z M100.8,99.4&#10;&#9;c4.2,2.2,8.6,4,13.1,5.4c1.6,0.5,2.9,0.9,2.9,1c0,0.1-3.4,1.3-6.2,2c-4,1-8,1.6-12.1,1.7l-3.5,0.1v-0.8c0-2,1.2-11.6,1.4-11.6&#10;&#9;C96.5,97.2,98.4,98.2,100.8,99.4L100.8,99.4z M228.5,98.2c0.5,2.9,0.9,5.8,1.1,8.8l0.1,2.6h-2.4c-5.9-0.1-11.8-1.1-17.4-3&#10;&#9;c-1.1-0.4-2.1-0.7-2.1-0.8c0.3-0.2,0.7-0.3,1.1-0.4c5.1-1.4,10.1-3.4,14.8-5.9c2.4-1.2,4.5-2.3,4.6-2.3&#10;&#9;C228.4,97.6,228.5,97.9,228.5,98.2L228.5,98.2z M119.3,109.2c0.1,1.5,0.3,3,0.5,4.5c0.7,4,0.8,3.6-0.2,3.9&#10;&#9;c-6.3,1.9-12.9,2.7-19.5,2.3c-1.7-0.1-3.4-0.3-3.8-0.4l-0.8-0.1l-0.1-1.2c-0.1-0.7-0.2-2.5-0.3-4l-0.2-2.7h1.6&#10;&#9;c6.8-0.1,13.6-1.2,20-3.5c1.2-0.5,2.3-0.9,2.4-0.9S119.2,107.8,119.3,109.2L119.3,109.2z M207.8,107.8c6,2.2,12.2,3.4,18.6,3.6&#10;&#9;l3.3,0.1l-0.1,3.3c-0.1,1.8-0.2,3.6-0.2,4c-0.1,0.7-0.2,0.7-1,0.8c-7.3,0.9-14.6,0.3-21.7-1.7c-0.8-0.2-1.5-0.4-2.2-0.7&#10;&#9;c-0.1-0.5,0-0.9,0.1-1.4c0.5-2.3,0.8-4.7,1-7.1c0.1-1,0.2-1.8,0.2-1.8L207.8,107.8z M121.5,120.5c0.6,1.9,1.3,3.7,2.1,5.5&#10;&#9;c0.2,0.3-2,3.2-4.6,6.1c-3,3.3-6.4,6.2-10.2,8.5c-1.8,1.1-3.7,2-5.7,2.8c-0.1-0.2-1.3-2.6-2.2-4.6c-1.7-3.8-2.5-6.2-2.3-6.2&#10;&#9;c6.6-2.1,9.8-3.6,14.6-6.8c2.2-1.4,4.2-3.2,6-5.1c0.5-0.5,1-1,1.6-1.5C121.2,119.5,121.4,120,121.5,120.5z M204.3,119.3&#10;&#9;c1.2,1.5,2.6,2.9,4.1,4.2c4.9,3.8,10.5,6.8,16.5,8.7c1.2,0.3,1.3,0.4,1.2,0.8c-0.2,0.8-2.1,5.4-3.4,8c-0.9,2-1.2,2.3-1.5,2.2&#10;&#9;c-2.4-1-4.7-2.3-6.9-3.7c-5-3.4-9.4-7.7-12.9-12.7l-0.4-0.6l0.8-2.1c0.5-1.1,1-2.7,1.3-3.4s0.5-1.4,0.5-1.5S204.3,119.1,204.3,119.3&#10;&#9;L204.3,119.3z M116.4,120.9c-0.8,0.8-1.7,1.6-2.7,2.1c-0.4-0.5-0.7-1.2-0.8-1.8c0,0,1-0.3,2-0.5s2.1-0.5,2.1-0.5&#10;&#9;C116.8,120.4,116.6,120.6,116.4,120.9L116.4,120.9z M210.3,120.7c0.5,0.1,1,0.2,1.4,0.4c-0.1,0.7-0.3,1.3-0.7,1.8&#10;&#9;c-1-0.6-1.9-1.3-2.7-2.1l-0.7-0.6l0.7,0.1C208.7,120.4,209.6,120.6,210.3,120.7z M100.5,121.8l2.1,0.1l0.2,1.5&#10;&#9;c0.1,1,0.3,2.1,0.6,3.1c0.2,0.6,0.4,1.2,0.5,1.9c0,0.2-0.3,0.4-0.7,0.6c-1.7,0.7-3.4,1.2-5.1,1.6c-0.4-0.2-1.7-2.7-2.1-4.3&#10;&#9;c-0.3-1-0.4-2.1-0.4-3.2v-1.7l1.4,0.2C97.7,121.6,99.3,121.7,100.5,121.8z M111.8,122.7c0.4,1,0.5,1.3,0.2,1.5&#10;&#9;c-0.7,0.6-6.4,3.9-6.6,3.7c-0.1-0.2-0.2-0.5-0.5-1.1c-0.5-1.3-0.8-2.6-0.8-4v-1h1.5c0.8,0,2-0.1,2.7-0.2s1.6-0.2,2-0.2h0.8&#10;&#9;L111.8,122.7z M218.3,121.7c1.6,0.1,2.2,0.2,2.3,0.4c0.2,0.7-0.7,5.1-1.3,5.7c-1.8-0.7-3.4-1.5-5-2.6c-0.2-0.2-0.4-0.3-0.7-0.4&#10;&#9;c-0.2-0.1-0.5-0.2-0.7-0.4c-0.6-0.5-0.6-0.2,0.3-2.4l0.3-0.7l1.3,0.1L218.3,121.7z M229.2,121.9c0.1,1.6-0.1,3.3-0.5,4.9&#10;&#9;c-0.6,1.8-1.6,3.9-2,3.9c-2-0.5-3.9-1.2-5.7-2.1c0-0.6,0.2-1.1,0.4-1.7c0.5-1.6,0.7-3.3,0.9-5c0.5-0.1,1.1-0.2,1.6-0.2&#10;&#9;c0.9,0,2.1-0.1,2.7-0.2C228.8,121.3,229.1,121.4,229.2,121.9L229.2,121.9z M125.2,129.2c1.2,0.9,2.2,2,3.2,3.1&#10;&#9;c0.9,1.3,1.7,2.6,2.3,4.1c0,0.1-0.2,0.1-0.5,0.1c-0.3,0-0.6,0.1-0.8,0.3c-0.4,0.5-0.6,2.4-0.4,4.3c0.1,0.6,0.1,1.1,0.1,1.7&#10;&#9;c-0.6-0.2-1.2-0.4-1.8-0.7c-1-0.3-1.9-0.8-2.6-1.5c-1.7-1.9-2.8-4.3-3.2-6.8l-0.2-1.4l1.5-1.8c0.5-0.7,1.1-1.3,1.6-1.9&#10;&#9;C124.7,128.8,125,129,125.2,129.2L125.2,129.2z M202,130.6c1.1,1.5,1.4,1.9,1.4,2.5c-0.3,2.7-1.3,5.2-3,7.3&#10;&#9;c-0.7,0.8-1.6,1.4-2.5,1.7c-2.5,1-2.3,1-2.1,0c0.2-1.7,0.2-3.3-0.1-5c-0.2-0.3-0.5-0.5-0.9-0.5c-0.3,0-0.6-0.1-0.6-0.3&#10;&#9;c0.5-1.4,1.3-2.8,2.2-4c0.9-1.2,3.6-3.6,4-3.6C201,129.2,201.5,129.9,202,130.6z M119.8,135.6c0.5,0.6,0.8,1.2,1.1,1.9&#10;&#9;c0.3,0.8,0.7,1.6,1.2,2.3l0.8,1.2l-0.5,0.2c-0.6,0.3-0.8,1.4-0.5,3.5c0.1,0.9,0.2,1.6,0.2,1.6s-0.6-0.1-1.3-0.3s-2-0.5-2.8-0.6&#10;&#9;c-1.4-0.2-1.5-0.2-2-1c-0.5-0.7-1-1.4-1.6-2c-0.9-1-1.5-2.2-1.2-2.4c0.6-0.4,4-3.2,4.8-4c0.4-0.4,0.7-0.7,1.1-1.1&#10;&#9;C119.3,135.1,119.6,135.3,119.8,135.6L119.8,135.6z M207.7,136.6c1.1,1,2.4,2.2,3,2.6c1.1,0.8,1.1,0.8,0.9,1.5&#10;&#9;c-0.3,0.6-0.6,1.1-1,1.6c-0.5,0.5-1.1,1.4-1.5,1.9c-0.7,1-0.7,1-2.1,1.2c-1.3,0.2-2.5,0.5-3.8,0.9c-0.2,0.1-0.2-0.2-0.2-2.2&#10;&#9;c0.1-2.3,0.1-2.3-0.4-2.8l-0.5-0.5l0.7-1.1c0.5-0.8,0.9-1.6,1.3-2.4c0.5-1.1,1.4-2.4,1.7-2.4C205.7,134.9,206.6,135.7,207.7,136.6&#10;&#9;L207.7,136.6z M132.8,138.9c2.6,1,5,2.7,6.8,4.8l0.4,0.6l-0.5,0.2c-0.7,0.2-0.8,1-0.4,2.6c0.5,1.8,1.3,3.5,2.2,5.1&#10;&#9;c0.1,0.2,0.3,0.4,0.4,0.6c-0.7-0.1-1.3-0.2-2-0.4c-1.1-0.2-2.1-0.5-2.4-0.5c-1.5-0.8-2.8-1.8-3.8-3.1c-1-1.3-1.8-2.7-2.3-4.2&#10;&#9;c-0.6-1.9-1.1-5.9-0.7-6.3C130.6,138.1,130.9,138.2,132.8,138.9z M194.3,140.4c0,4.2-2,8.1-5.3,10.5c-0.8,0.6-1.7,1-2.7,1.1&#10;&#9;c-0.8,0.1-1.5,0.3-2.3,0.6c-0.2,0.1-0.5,0.2-0.8,0.2c0-0.1,0.4-0.9,0.9-1.9c1.2-2.2,2.1-5,1.8-5.8c-0.1-0.3-0.3-0.5-0.6-0.6&#10;&#9;c-0.6-0.2-0.5-0.5,0.6-1.6c1.9-2,4.2-3.5,6.8-4.4C194.5,137.9,194.4,137.8,194.3,140.4z M111.7,142.3c0.7,0.6,1.3,1.2,1.9,1.9&#10;&#9;c1,1.2,1,1.3,1.3,3.1c0.2,1.1,0.4,2.3,0.7,3.4c0.3,0.8,0.5,1.5,0.5,1.6c-0.8,0.1-1.6,0.1-2.4,0.1c-2.3,0-2.4,0-2.9,0.5l-0.5,0.5&#10;&#9;l-1.1-0.9c-2-1.7-3.5-3.9-4.4-6.3c-0.3-1-0.4-1.3-0.2-1.4c0.5-0.2,4.8-2.3,5.3-2.7c0.2-0.2,0.4-0.3,0.7-0.4&#10;&#9;C111.1,141.8,111.4,142,111.7,142.3z M215.3,142.3c0.7,0.4,2.1,1.1,3.1,1.6c0.6,0.3,1.3,0.6,1.9,1c0,0-0.2,0.7-0.5,1.4&#10;&#9;c-1,2.5-2.7,4.8-4.8,6.5l-0.7,0.5l-0.5-0.5c-0.5-0.5-0.5-0.5-2.9-0.4c-1.6,0-2.4,0-2.3-0.2c0.6-1.6,1-3.2,1.2-4.9&#10;&#9;c0-0.8,0.2-1.5,0.6-2.2c1-1.3,2.1-2.5,3.4-3.6C214.3,141.8,214.8,142.1,215.3,142.3L215.3,142.3z M126,143.3&#10;&#9;c0.9,0.3,1.8,0.7,2.7,1.2c0.8,0.3,1.4,1,1.6,1.8c0.7,1.7,1.7,3.2,3,4.5l0.9,0.9l-0.5,0.4c-0.4,0.4-0.5,0.5-0.4,1.5&#10;&#9;c0.1,0.8,0.3,1.7,0.6,2.5c0.2,0.4,0.3,0.9,0.4,1.4c-1.4-0.5-2.8-1.1-4.1-1.8c-1-0.6-1.9-1.3-2.7-2.2c-1-0.9-1.9-2.1-2.4-3.4&#10;&#9;c-0.9-1.8-1.5-3.9-1.6-5.9l-0.1-1.6l0.7,0.1C124.6,142.8,125.3,143.1,126,143.3L126,143.3z M201.4,144.4c-0.2,4.7-2.8,8.9-6.9,11.3&#10;&#9;c-1.3,0.7-2.6,1.2-4,1.6c0-0.2,0.1-0.5,0.2-0.7c0.5-1.2,0.8-2.6,0.8-3.9c-0.1-0.3-0.3-0.6-0.6-0.7l-0.5-0.2l0.6-0.6&#10;&#9;c1.3-1.3,2.4-2.7,3.2-4.4l0.9-1.8l1.6-0.8c1.5-0.7,3-1.2,4.6-1.6C201.4,143.2,201.5,143.8,201.4,144.4L201.4,144.4z M143.7,146&#10;&#9;c2.1,0.3,4.1,1,6,2c1.5,1,2.9,2.2,4.1,3.6l0.4,0.5l-0.8,0.6c-0.7,0.5-0.9,0.7-0.9,1.2c0,0.3-0.1,0.6-0.1,0.6c-0.1,0-1.4,0.2-3,0.4&#10;&#9;c-3.3,0.4-3.1,0.5-4.9-1.3c-1.2-1.2-2.2-2.7-2.9-4.2c-0.5-1.1-0.9-2.1-1.2-3.3C140.3,145.8,141.9,145.8,143.7,146z M184.3,146.1&#10;&#9;c-0.4,1.8-1.1,3.5-2.1,5.1c-0.7,0.9-1.4,1.8-2.2,2.6c-1.3,1.2-1.3,1.2-2.2,1.1c-2.2-0.3-6.4-0.7-7.2-0.7c-1.2,0-1.2-0.1-0.3-1.5&#10;&#9;c0.9-1.5,2.1-2.8,3.6-3.8c2.8-2,6.1-3,9.4-3.1C184.2,145.8,184.3,145.9,184.3,146.1L184.3,146.1z M119.8,147.4&#10;&#9;c2.5,0.6,2.7,0.7,3.1,2.1c1.4,3.4,4,6.3,7.3,7.9c1.7,0.8,1.7,1.2-0.2,1.8c-0.6,0.2-1.1,0.4-1.7,0.5c-0.1,0-0.4-0.3-0.7-0.7&#10;&#9;c-2.1-2.8-5.1-4.9-8.4-5.9c-1.1-0.3-1.1-0.4-1.6-1.4c-0.6-1.3-1-2.6-1.2-4l-0.1-0.8l1,0.1C117.9,147,119,147.2,119.8,147.4z&#10;&#9; M208.4,147.3c-0.1,1.3-0.5,2.6-1,3.8l-0.6,1.6l-1.4,0.4c-2.9,0.9-5.4,2.6-7.4,4.9c-0.4,0.5-0.8,0.9-1.3,1.3&#10;&#9;c-1.2-0.2-2.3-0.6-3.3-1.1c0.4-0.3,0.9-0.6,1.4-0.8c3.5-1.8,6.1-4.9,7.4-8.6c0.2-0.6,1.6-1.1,4-1.6&#10;&#9;C208.2,146.7,208.4,146.7,208.4,147.3z M166.5,151.1c0.7,0.1,1.5,0.4,1.9,0.5l0.6,0.2l-0.5,0.9c-0.2,0.4-0.5,0.7-0.9,1&#10;&#9;c-0.4,0.1-13.2,0.5-13.3,0.4c-0.3-0.3,3.1-2.1,5-2.7C161.6,150.8,164.1,150.6,166.5,151.1z M139.6,153.9c1.7,0.4,4.2,1.5,4.1,1.7&#10;&#9;c-0.3,0.1-0.7,0.2-1,0.3c-0.5,0-2.2,0.4-3.8,0.8c-2.2,0.5-2.9,0.6-3,0.4c-0.5-1.2-0.9-2.3-1.1-3.6c0-0.3,0.2-0.3,1.7-0.2&#10;&#9;C137.6,153.5,138.6,153.7,139.6,153.9z M190,153.8c-0.1,0.3-0.3,1.1-0.5,1.8c-0.4,1.2-0.5,1.2-1,1.2c-2.4-0.3-4.7-0.8-7-1.4&#10;&#9;c0.9-0.6,1.9-1,2.9-1.3c1.5-0.4,3-0.7,4.5-0.8h1.2L190,153.8z M118.3,154.4c2,0.6,4,1.6,5.7,2.9c1,0.9,2.8,2.9,2.7,3&#10;&#9;s-1.2,0.5-2.6,1.1s-3,1.3-3.6,1.6l-1.1,0.5l-1.1-0.7c-2.9-2.1-5.1-5.1-6.1-8.5l-0.1-0.5l2.6,0.1C115.8,154,117.1,154.1,118.3,154.4&#10;&#9;L118.3,154.4z M212.6,154c-0.3,1.1-0.7,2.3-1.2,3.3c-1,2.1-2.5,3.8-4.4,5.2l-0.9,0.6l-2.1-1c-1.2-0.5-2.9-1.2-3.8-1.6&#10;&#9;c-0.6-0.2-1.2-0.5-1.7-0.8c0.4-0.6,0.9-1.1,1.4-1.6c2.9-2.9,6.8-4.5,10.9-4.3C211.3,153.8,211.9,153.9,212.6,154L212.6,154z&#10;&#9; M173.7,156.4c10.6,1,21,3.7,30.8,8.1l1,0.5l-0.7,0.6c-4.1,2.9-8.4,5.4-13,7.4l-2.5,1.1l-2.6-1c-4.9-1.7-10-2.9-15.2-3.6&#10;&#9;c-5.4-0.4-10.8-0.5-16.2-0.1c-5.7,0.6-11.3,1.9-16.6,3.9l-1.9,0.8l-1.6-0.7c-3-1.3-5.9-2.8-8.8-4.5c-1.9-1.1-3.8-2.4-5.6-3.8&#10;&#9;c-0.1-0.4,6-2.9,10.4-4.3c8.3-2.6,16.8-4.2,25.5-4.7C162.4,155.8,168.1,155.9,173.7,156.4L173.7,156.4z M119.8,166.8&#10;&#9;c4.6,3.4,9.6,6.2,14.8,8.4c2.6,1.1,6.6,3.2,5.9,3c-1.2-0.2-7.1-0.9-9.5-1.1c-5.3-0.3-10.6-0.2-15.9,0.1c-9.6,0.9-22.7,3.4-29.5,5.7&#10;&#9;l-1,0.4l0.1-0.4c0-0.2,0.7-2,1.3-4c1.2-3.6,1.3-3.6,0.8-3.8c-0.2-0.1-2-0.7-3.9-1.4c-1.2-0.4-2.4-0.8-3.5-1.4c0-0.3,10.5-2.9,16.4-4&#10;&#9;c7-1.3,14-2.2,21.1-2.7h1.3L119.8,166.8z M214.3,166c8.2,0.8,16.4,2.2,24.4,4.1c2.7,0.6,5.3,1.3,7.9,2.2c-1.3,0.6-2.5,1.1-3.9,1.5&#10;&#9;c-2.6,0.9-3.8,1.4-3.8,1.6s0.6,1.9,1.3,3.9c0.5,1.2,0.9,2.5,1.2,3.7c-1-0.2-1.9-0.4-2.8-0.7c-9-2.5-18.3-4.2-27.7-5.1&#10;&#9;c-5.6-0.4-11.2-0.4-16.8,0c-3.1,0.2-7.4,0.7-8.6,1c-0.7,0.1,2.9-1.7,5.5-2.8c5.5-2.3,10.8-5.3,15.6-8.9l1.3-1l2.3,0.1&#10;&#9;C211.4,165.8,213.3,165.9,214.3,166L214.3,166z"/>
<path d="M158.5,159.6c-2.2,0.1-2.4,0.2-2.4,0.8c0.1,0.5,0.1,0.5,0.8,0.5h0.8l0.1,2.3c0.1,1.2,0.2,2.3,0.2,2.3c0.2,0,0.5,0,0.7,0&#10;&#9;l0.6-0.1l-0.1-2.3l-0.1-2.3l0.8-0.1c0.7-0.1,0.8-0.1,0.8-0.6S160.7,159.5,158.5,159.6z"/>
<path d="M162,160.6c0,0.6-0.1,1.5-0.1,1.9c-0.1,1,0.3,2,1.1,2.7c0.5,0.2,0.9,0.3,1.4,0.3c0.6,0,1.1-0.2,1.5-0.6&#10;&#9;c0.6-0.5,0.6-0.7,0.8-2c0.1-0.8,0.2-1.8,0.2-2.3c0-0.8,0-0.9-0.4-1c-1.1-0.2-1.1-0.1-1.1,2s-0.2,2.7-0.9,2.7c-0.9,0-1-0.3-1-2.6&#10;&#9;v-2.2h-1.3L162,160.6z"/>
<path d="M168.1,160.1c-0.2,0.6-0.1,0.7,0.8,0.9l0.7,0.1l-0.1,1.7c-0.1,0.9-0.2,2-0.2,2.3c-0.1,0.6-0.1,0.6,0.4,0.7l0.8,0.1&#10;&#9;c0.2,0,0.3-0.6,0.4-2.3l0.2-2.3l0.8,0.1c0.8,0.1,0.8,0.1,0.8-0.5s0-0.6-1.2-0.7c-0.7-0.1-1.7-0.2-2.2-0.2&#10;&#9;C168.3,159.6,168.2,159.7,168.1,160.1z"/>
<path d="M154,160c-0.5,0.1-0.6,0.1-0.5,0.5c0.1,0.3,0.5,4.4,0.5,5c0,0.3,0.2,0.4,0.6,0.4c0.2,0,0.5,0,0.7-0.1&#10;&#9;c-0.1-1.9-0.3-3.8-0.6-5.7C154.5,160,154.2,160,154,160z"/>
<path d="M149.6,160.6c-0.6,0.1-1.2,0.2-1.8,0.5c0,0.2,0,0.4,0,0.6c0,0.4,0.1,0.4,0.8,0.3l0.8-0.1l0.3,2.2c0.1,0.8,0.2,1.5,0.4,2.3&#10;&#9;c0.2,0.1,0.5,0.1,0.7,0c0.5-0.1,0.6-0.2,0.5-0.7c-0.6-3.9-0.6-3.9,0.2-4.1c0.6-0.1,0.7-0.2,0.7-0.7&#10;&#9;C152.2,160.1,152.2,160.1,149.6,160.6z"/>
<path d="M173.6,163c-0.2,1-0.3,1.9-0.3,2.9c1.2,0.3,2.3,0.5,3.5,0.6c0,0,0.1-0.3,0.2-0.6c0.1-0.5,0.1-0.5-1-0.6l-1.2-0.1v-1.3&#10;&#9;l1.2,0.1l1.2,0.1v-0.6c0-0.5-0.1-0.6-1-0.7s-1-0.1-1-0.7s0-0.6,0.8-0.5c0.4,0.1,0.9,0.2,1.1,0.2s0.4-0.1,0.4-0.4&#10;&#9;c0.1-0.2,0.1-0.4,0.1-0.6c-1-0.3-1.9-0.5-2.9-0.6l-0.6-0.1L173.6,163z"/>
<path d="M144.6,161.4c-0.8,0.3-1.4,1-1.6,1.8c0,0.8,0.8,1.4,1.9,1.7c0.8,0.2,1.1,0.3,1.1,0.7s-0.2,0.6-1.5,0.7&#10;&#9;c-0.5,0-0.7,0.2-0.7,0.5c-0.1,0.8,0.6,1,2,0.6c0.9-0.1,1.6-0.9,1.7-1.9c0-1-0.6-1.6-1.8-1.8c-0.4,0-0.8-0.2-1.1-0.4&#10;&#9;c-0.2-0.4,0.6-0.9,1.3-0.9s0.6,0,0.6-0.5s-0.1-0.6-0.6-0.6C145.4,161.3,145,161.3,144.6,161.4z"/>
<path d="M182.5,162.4c-1.3,0.8-1.9,2.3-1.6,3.7c0.5,1.5,2,2.3,3.5,1.8c0.7-0.2,1.4-0.8,1.7-1.5c0.8-1.7,0.3-3.4-1-4&#10;&#9;C184.3,162.1,183.3,162.1,182.5,162.4z M184.5,163.4c0.7,0.5,0.8,1.8,0.1,2.9c-0.3,0.6-1.1,0.8-1.7,0.4c-0.4-0.3-0.7-0.7-0.6-1.2&#10;&#9;c0-0.7,0.3-1.4,0.7-1.9C183.4,163.3,184,163.2,184.5,163.4L184.5,163.4z"/>
<path d="M140.4,162.5c-0.2,0-0.4,0.1-0.4,0.2s0.7,2.3,0.9,3c0.1,0.2-0.5-0.3-1.3-1.1c-0.5-0.5-1-1-1.6-1.4c-0.5,0-1.4,0.5-1.3,0.7&#10;&#9;s0.4,1.4,0.8,2.7c0.2,0.9,0.5,1.7,0.9,2.6c0.2,0,0.4-0.1,0.6-0.2l0.5-0.2l-0.4-1.4c-0.2-0.8-0.5-1.6-0.6-1.9c-0.1-0.3,0.3,0,1.5,1.1&#10;&#9;l1.6,1.6l0.7-0.2l0.7-0.2l-0.3-0.8c-0.2-0.4-0.5-1.7-0.9-2.8c-0.2-0.7-0.4-1.3-0.7-1.9L140.4,162.5z"/>
<path d="M187.6,166.3c-0.4,0.9-0.7,1.8-0.8,2.8c0.2,0.1,0.4,0.2,0.7,0.3c0.5,0.1,0.5,0,0.9-0.9c0.4-1.1,0.5-1.1,1.5-0.7&#10;&#9;c0.8,0.3,1,0.3,1.1-0.3c0.1-0.3-0.1-0.5-0.8-0.8c-0.5-0.2-0.9-0.4-1-0.4c0-0.2,0.1-0.4,0.2-0.6c0.2-0.5,0.4-0.5,1.7,0&#10;&#9;c0.6,0.2,0.6,0.2,0.8-0.2c0.1-0.2,0.1-0.4,0.1-0.6c-0.1-0.1-3-1.2-3.2-1.2C188.3,164.5,187.9,165.4,187.6,166.3z"/>
<path d="M133.9,164.7l-0.4,0.2l1,2.5c0.3,0.9,0.7,1.8,1.1,2.7c0.1,0.1,0.4,0.1,0.7-0.1l0.6-0.3l-1-2.6c-0.3-0.9-0.7-1.8-1.3-2.6&#10;&#9;C134.3,164.5,134.1,164.6,133.9,164.7z"/>
<path d="M117.5,168.8c0,0.2,0.1,0.9,0.2,1.7c0.1,0.5,0.1,0.9,0.1,1.4c-0.4-0.3-0.7-0.7-0.9-1.1c-1.2-1.9-1.4-2.1-2.2-2.1&#10;&#9;c-0.8,0-0.8-0.1-0.4,3.4c0.2,1.5,0.3,2.1,0.5,2.1l0.6-0.1c0.3,0,0.4-0.1,0.3-0.6c0-0.3-0.2-1.1-0.2-1.9l-0.1-1.3l0.9,1.3&#10;&#9;c1.7,2.5,1.6,2.4,2.3,2.3c0.2,0,0.4-0.1,0.6-0.2c0,0-0.1-1.2-0.2-2.5s-0.3-2.5-0.3-2.6s-0.2-0.1-0.6-0.1&#10;&#9;C117.7,168.5,117.5,168.6,117.5,168.8z"/>
<path d="M109.5,169.2c-0.2,0-0.3,0.1-0.4,0.1c0,0-0.2,1.3-0.4,2.8l-0.3,2.8h0.7c0.6,0,0.6-0.1,0.8-0.8c0.1-0.4,0.2-0.8,0.4-0.8&#10;&#9;c0.3,0,0.5-0.1,0.8-0.1c0.5-0.1,0.6,0,0.8,0.6s0.5,0.8,1.3,0.5c0.4-0.1,0.4-0.2-0.9-2.7C110.6,168.9,110.7,169,109.5,169.2z&#10;&#9; M110.8,172.2c0,0.1-0.3,0.1-0.6,0.1c-0.5,0-0.5,0-0.4-0.7c0.1-0.3,0.1-0.7,0.1-1c0-0.1,0.2,0.1,0.5,0.6&#10;&#9;C110.6,171.5,110.8,171.8,110.8,172.2L110.8,172.2z"/>
<path d="M104.8,170c0,0.2,1.1,5.3,1.2,5.4c0.2,0,0.4,0,0.6-0.1c0.6-0.1,0.6-0.1,0-3.1l-0.5-2.4h-0.7&#10;&#9;C105.1,169.9,104.8,169.9,104.8,170z"/>
<path d="M99.5,170.8c-0.6,0.1-0.8,0.3-0.8,0.5s0.2,1.4,0.5,2.6l0.5,2.3h1c1.1,0,2.2-0.5,3-1.3c0.5-0.9,0.5-2.1,0-3&#10;&#9;C103,170.8,101.5,170.4,99.5,170.8z M102.1,172.1c0.7,0.6,0.8,1.7,0.3,2.4c-0.2,0.3-0.6,0.5-1,0.6l-0.6,0.1l-0.4-1.7&#10;&#9;c-0.4-1.9-0.4-2,0.6-2C101.4,171.6,101.8,171.8,102.1,172.1L102.1,172.1z"/>
<path d="M96,171.5c-0.2,0.1-0.1,0.5,0.2,1.8l0.4,1.6l-0.9-1c-0.5-0.5-1.1-1.2-1.4-1.5c-0.4-0.5-0.5-0.6-1.2-0.4l-0.8,0.2l0.5,1.9&#10;&#9;c0.8,3.2,0.8,3.4,1.2,3.4c0.8,0,0.8-0.2,0.3-2.1l-0.5-1.8l0.5,0.6c0.3,0.3,1,1.1,1.5,1.7c1,1,1.1,1.1,1.7,1c0.2,0,0.4-0.1,0.7-0.1&#10;&#9;c0,0-0.3-1.2-0.7-2.6c-0.5-2.1-0.7-2.6-1-2.6C96.4,171.4,96.2,171.4,96,171.5z"/>
<path d="M89.8,172.7c-0.2,0.1-0.2,0.6,0.4,2.8l0.6,2.6l0.6-0.1c0.2,0,0.4-0.1,0.6-0.2c0,0-0.2-1.2-0.6-2.6c-0.5-2.1-0.7-2.6-1-2.6&#10;&#9;C90.2,172.6,90,172.6,89.8,172.7z"/>
<path d="M206.1,169.1c-0.7,0.2-1.3,0.8-1.4,1.6c0,0.4,0.6,1.3,1,1.3s1.5,0.6,1.5,0.9c0,0.4-0.8,0.7-1.6,0.6s-0.8-0.1-1,0.3&#10;&#9;c-0.2,0.6,0.1,0.8,1.3,0.8c1.8,0,2.9-1,2.6-2.2c-0.1-0.4-0.4-0.6-1.3-1c-1.6-0.7-1.5-1.2,0.2-1.3c0.7,0,0.8-0.1,0.9-0.4&#10;&#9;C208.4,168.9,207.4,168.7,206.1,169.1z"/>
<path d="M210.9,169.4c-0.9,0.4-1.5,1.3-1.5,2.3c-0.2,1.8,0.8,2.7,3,2.7c1.1,0,1.2,0,1.2-0.5s-0.1-0.5-1-0.5&#10;&#9;c-0.5,0.1-1.1-0.1-1.5-0.5c-0.4-0.3-0.5-0.8-0.4-1.3c0.2-1.2,0.9-1.7,2.2-1.6c0.9,0.1,1,0,1.1-0.3c0-0.2,0-0.4,0-0.5&#10;&#9;C213.8,168.9,211.6,169,210.9,169.4z"/>
<path d="M215.2,169.5c-0.1,0.4-0.9,4.6-0.9,4.9c0,0.1,0.2,0.2,0.6,0.2h0.6l0.4-2.5c0.2-0.9,0.3-1.8,0.3-2.7&#10;&#9;C216.2,169.2,215.3,169.2,215.2,169.5z"/>
<path d="M217.7,169.8c-0.2,0.6-1.1,4.9-1,5c0.6,0.1,1.2,0.2,1.8,0.3c1.8,0.2,2,0.2,2-0.5c0-0.2-0.9-0.5-1.8-0.5&#10;&#9;c-0.6,0-0.6-0.1-0.4-0.9c0.1-0.4,0.2-0.4,1.2-0.4s1.1,0,1.1-0.4s-0.1-0.4-0.9-0.5s-1-0.2-1-0.6c0-0.6,0.1-0.7,1.3-0.5&#10;&#9;c0.8,0.1,1,0.1,1.1-0.1c0.2-0.6,0.1-0.8-1.3-0.9c-0.6,0-1.2-0.1-1.7-0.2C217.9,169.5,217.7,169.6,217.7,169.8z"/>
<path d="M222.3,170.2c-0.5,1.6-0.8,3.3-1.1,5c0,0.2,0.2,0.3,0.6,0.3c0.5,0,0.6-0.1,0.9-1.4c0.1-0.6,0.2-1.1,0.3-1.7&#10;&#9;c0-0.8,0.3-0.2,0.9,1.5s0.6,1.9,1.2,2.1c0.3,0.1,0.7,0.1,0.7,0.1s1.2-4.8,1.2-5.1c0-0.1-0.2-0.2-0.6-0.2c-0.5,0-0.6,0.1-0.8,0.8&#10;&#9;c-0.1,0.4-0.2,1.1-0.3,1.6s-0.2,0.8-0.2,0.8c-0.3-0.6-0.5-1.2-0.7-1.9c-0.4-1.1-0.7-1.7-0.9-1.7c-0.2,0-0.5-0.1-0.7-0.1&#10;&#9;C222.6,170.1,222.4,170.1,222.3,170.2z"/>
<path d="M229.2,171.5c-0.9,0.2-1.5,0.9-1.8,1.8c-0.4,0.8-0.3,1.7,0.1,2.5c0.7,0.6,1.7,1,2.6,1c0.7,0,0.8,0,0.8-0.5s-0.1-0.5-0.5-0.5&#10;&#9;c-0.7,0-1.4-0.3-1.8-0.9c-0.3-0.4-0.3-0.8-0.1-1.2c0.1-0.4,0.4-0.8,0.7-1.1c0.7-0.4,1.5-0.4,2.2-0.1c0.3,0.1,0.4,0.1,0.6-0.2&#10;&#9;c0.3-0.5,0.1-0.7-0.9-1C230.6,171.1,229.9,171.1,229.2,171.5z"/>
<path d="M232.6,174.5c-1.1,2.9-1.2,2.6,1.1,3.2c1.2,0.3,1.4,0.3,1.6,0.1c0.3-0.5,0.2-0.7-0.9-1s-1.2-0.3-0.8-1&#10;&#9;c0.2-0.5,0.2-0.5,1.2-0.2c0.8,0.2,1,0.2,1.1,0c0.3-0.5,0.2-0.7-0.7-1s-1-0.5-0.7-1.1c0.1-0.2,0.3-0.2,1.1,0s1,0.3,1.2-0.1&#10;&#9;s0.1-0.5,0-0.5c-1-0.4-2.1-0.7-3.1-1C233.7,171.8,233.2,173.1,232.6,174.5z"/>
<path d="M118.3,185.5c-0.8,0.5-1.2,1.4-1,2.3l0.1,0.9H95v1.5h2.5v2.5l-1.4,0.1l-1.4,0.1l-0.1-1.7c-0.1-1.9-0.4-2.6-1.2-3&#10;&#9;c-1-0.6-2.2-0.2-2.7,0.7c-0.2,0.3-0.3,0.7-0.3,1.1c-0.1,0.5,0.2,1.1,0.5,1.4c0.3,0.3,0.6,0.5,1,0.6c0.3,0,0.4-0.1,0.4-0.7&#10;&#9;s-0.1-0.7-0.3-0.7c-0.2,0-0.3-0.2-0.2-0.5s0.2-0.5,0.5-0.5c0.4,0,0.5,0,0.5,1.6v1.6l-0.8,0.1c-1,0-1.7,0.8-1.7,1.8c0,0,0,0.1,0,0.1&#10;&#9;c-0.2,0.6,0,1.2,0.4,1.6c0.6,0.7,1.6,1,2.5,0.6c0.8-0.3,1.2-0.8,1.4-1.9l0.1-0.8h2.8v3.6H99v-7.8h2.3v7.8h1.5v-4&#10;&#9;c0-3.5,0-3.9,0.3-3.8c0.8,0.1,1.7,0.1,2.5,0.1h2.3v1.2c0,0.7,0,1.4,0,1.6c0,0.6-0.6,0.6-1.1,0l-0.4-0.5l-0.6,0.5l-0.6,0.5l2.2,2.6&#10;&#9;c2.3,2.8,2.5,2.8,3.2,2c0.2-0.2,0.1-0.5-1-1.8l-1.2-1.5l0.5-0.5c0.4-0.4,0.5-0.7,0.6-2.2c0-0.6,0.1-1.2,0.2-1.8c0,0,1.9-0.1,4.2-0.1&#10;&#9;l4.2-0.1v1c0,1.1,0.2,1-2.2,1c-1.8,0-3.1,0.3-3.5,1c-0.6,0.9-0.7,2-0.2,2.9c0.5,1,1.2,1.9,2.1,2.7c0.2-0.1,0.5-0.3,0.7-0.5l0.5-0.5&#10;&#9;l-0.9-0.8c-1.1-1-1.5-2-1-2.8c0.3-0.5,0.4-0.5,2.4-0.5h2.1v4.2h1.5v-7.8l1.3,0.1c0.5,0,1,0.1,1.5,0.2c0.2,0.1,0.2,0.8,0.2,3.6&#10;&#9;c0,1.9,0,3.6,0,3.8s0.3,0.2,0.7,0.2h0.6v-7.7h2c1.9,0,2,0,2.3,0.4c0.4,0.5,0.4,1.1,0,1.6c-0.2,0.3-0.5,0.4-1.1,0.4&#10;&#9;c-0.8,0-1.3,0.3-1.3,0.8s1.6,2.1,2.4,2.4c1.1,0.5,2,0.5,3.8-0.3c0.3-0.1,0.3,0,0.3,1.1v1.3h1.6v-7.7h0.6c0.3,0,1.1-0.1,1.6-0.1&#10;&#9;c1-0.1,1-0.1,1-0.8v-0.7l-6.8,0.1c-3.8,0-6.8,0-6.9,0c0,0-0.4-0.6-0.9-1.2c-0.4-0.6-0.9-1.2-1.5-1.6&#10;&#9;C120.4,185.2,119.3,185.1,118.3,185.5z M121,187.5c0.3,0.3,0.5,0.6,0.7,1c0,0.1-0.6,0.2-1.2,0.2c-1.2,0-1.2,0-1.5-0.5&#10;&#9;c-0.4-0.9-0.2-1.4,0.6-1.4C120.1,186.8,120.4,186.9,121,187.5L121,187.5z M131.6,190.2h0.8v3.3l-0.8,0.5c-0.9,0.7-2,0.8-3,0.4&#10;&#9;l-0.8-0.3l0.6-0.2c0.4-0.2,0.8-0.5,1.1-0.8c0.4-0.4,0.5-0.7,0.5-1.8c0-1.1,0-1.2,0.4-1.1C130.8,190.2,131.2,190.2,131.6,190.2&#10;&#9;L131.6,190.2z M92.9,194.9c0,0.8-0.4,1.1-1,0.7c-0.4-0.2-0.5-0.7-0.2-1c0.2-0.2,0.4-0.4,0.7-0.4C92.8,194.2,92.9,194.3,92.9,194.9&#10;&#9;L92.9,194.9z"/>
<path d="M145,185.6c-1,0.3-1.6,1.3-1.4,2.4c0,0.8,0,0.9-0.3,0.9c-0.3-0.1-0.3,0.1-0.3,0.6c0,0.8,0,0.8,0.8,0.8h0.8v7.7h1.6v-7.6&#10;&#9;l1.4-0.1c0.8,0,2.3,0,3.6,0h2.2l-0.1,2l-0.1,1.9l-0.7,0.4c-1.5,1-2.9,0.6-3-0.7c-0.1-0.9,0.4-1.4,1.3-1.4c0.9,0,0.9-0.1,0.9-1&#10;&#9;c0-0.4-0.1-0.5-1-0.5c-1.5,0-2.7,1.1-2.8,2.6c0,0.7,0.2,1.3,0.7,1.8c1.1,1.1,2.8,1.3,4.1,0.5l0.6-0.3v2.1h1.5v-7.7h10.8v1.2h-5.2&#10;&#9;v0.7c0,0.6,0.1,0.7,0.5,0.8c0.8,0.2,1.1,0.4,1.2,0.9c0.1,0.6,0,0.5-0.8,0.5c-0.9-0.1-1.8-0.5-2.3-1.3c-0.1-0.2-0.3-0.2-0.6,0.2&#10;&#9;c-0.2,0.2-0.4,0.4-0.5,0.6c0.6,0.8,1.3,1.6,2,2.3l2,2.1l0.5-0.5l0.5-0.5l-0.6-0.6c-0.6-0.7-0.6-0.9,0-0.9c0.3-0.1,0.6-0.2,0.9-0.5&#10;&#9;c0.4-0.4,0.5-0.6,0.4-1.4l-0.1-0.9h1h1v5.1h1.5v-7.7h2.3v7.7h1.5v-7.7h3.8c2.1,0,4,0,4.3-0.1c0.5-0.1,0.5-0.1,0.5,1&#10;&#9;c0,0.9-0.1,1-0.3,1c-1.7-0.1-3.4,0.1-5,0.5c-1.1,0.8-1.3,2.3-0.5,3.4c0,0,0,0.1,0.1,0.1c0.8,0.8,2.1,0.8,2.8,0&#10;&#9;c0.1-0.1,0.1-0.1,0.2-0.2c0.3-0.6,0.3-1.6,0-1.6c-0.6,0-1.1,0.3-1.1,0.6c0,0.3-0.2,0.5-0.5,0.5c-0.1,0-0.2,0-0.2-0.1&#10;&#9;c-0.4-0.1-0.3-1.4,0.1-1.5c0.8-0.1,1.6-0.1,2.4-0.1h2.1v4.2h1.5v-7.8h3.2l0.1-0.7l0.1-0.7h-30.4l-1.3-1&#10;&#9;C149.4,185.4,146.9,184.7,145,185.6z M149.6,187.5c2.2,1.1,2.2,1.1-0.3,1.2c-1.2,0-2.5,0.1-2.9,0.1c-1,0.1-1.5-0.2-1.5-0.7&#10;&#9;s0.4-1.1,1.3-1.3C147.4,186.6,148.6,186.9,149.6,187.5L149.6,187.5z"/>
<path d="M198.9,186.1l-0.6,0.7l0.7,0.7l0.7,0.7l0.7-0.7l0.7-0.7l-0.6-0.7c-0.2-0.3-0.5-0.5-0.8-0.7&#10;&#9;C199.4,185.6,199.2,185.8,198.9,186.1z"/>
<path d="M211.7,188.3c-0.6,0.4-1,0.4-11.1,0.4h-10.5v1.5h2.8c0.2,1,0.2,2,0,3c-0.1,0.6-0.6,0.6-1,0l-0.3-0.4l-0.6,0.4&#10;&#9;c-0.4,0.3-0.5,0.5-0.5,0.7c1.2,1.7,2.6,3.2,4.1,4.6c0.4-0.2,0.9-0.7,0.9-0.8c-0.3-0.5-0.6-0.9-1-1.4l-1.1-1.2l0.4-0.4&#10;&#9;c0.4-0.4,0.6-0.4,2.3-0.4h1.8v3.6h1.5v-7.8h2.7c0.9,0,1.9,0,2.8,0.1c0.2,1,0.2,2,0,3c-0.2,0.5-0.6,0.5-1,0l-0.4-0.4l-0.6,0.4&#10;&#9;c-0.5,0.4-0.6,0.5-0.4,0.8c0.9,1.2,3.9,4.6,4,4.6c0.2-0.1,0.4-0.3,0.6-0.5c0.5-0.5,0.6-0.4-0.9-2.1l-0.8-1l0.4-0.4&#10;&#9;c0.4-0.4,0.6-0.4,2.8-0.4h2.4l0.7,0.6c1.3,1.4,3.4,1.7,5,0.8l0.8-0.4v2.7h1.5v-7.8h2.1v7.8h1.5v-4c0-3.5,0-3.9,0.3-3.8&#10;&#9;s2.1,0.1,4.4,0.1h4.1v1.9l-2.4,0.1c-1,0-2,0.1-3,0.3c-0.8,0.5-1.2,1.4-1.1,2.4c0.3,2.4,3.8,2.5,3.8,0.1c0-0.6-0.3-0.8-0.9-0.6&#10;&#9;c-0.2,0-0.4,0.2-0.5,0.5c0,0.3-0.2,0.5-0.5,0.5c-0.1,0-0.2,0-0.3-0.1c-0.3-0.2-0.3-1.1,0-1.4c0.8-0.2,1.7-0.2,2.5-0.2h2.2v4.2h1.5&#10;&#9;v-7.7h1.1c2.1-0.1,2,0,2.1-0.8l0.1-0.7h-20.6v1.5h1.7v1.6c0,1.8-0.1,1.9-1.3,2.5c-0.9,0.5-1.9,0.4-2.7-0.1l-0.6-0.4l0.5-0.2&#10;&#9;c0.9-0.5,1.6-1.4,1.9-2.4c0.4-1.2-0.1-2.5-1.2-3.1C213.3,187.7,212.4,187.8,211.7,188.3z M213.7,189.8c0.3,0.6,0.3,1.2-0.1,1.8&#10;&#9;c-0.3,0.7-1,1.1-1.8,1c-0.3,0-0.6,0-0.9,0.1c-0.7,0.1-1.5,0.2-2.2,0.1h-2.1v-1.3v-1.3h2c2,0,2,0,2.5,0.6c0.3,0.3,0.6,0.5,1,0.6&#10;&#9;c0.4,0,0.5,0,0.5-0.5s0-0.6-0.2-0.7c-0.4-0.2-0.4-0.7-0.1-0.8C212.9,189.3,213.4,189.4,213.7,189.8L213.7,189.8z M198,191.4&#10;&#9;c0,0.7-0.1,1.3-0.2,1.3h-1.5h-1.5c-0.1,0-0.2-0.5-0.2-1.2l0.1-1.2l1.2-0.1c0.7-0.1,1.4-0.1,1.7-0.1C198,190.1,198,190.1,198,191.4z"/>
</svg>